<svg xmlns="http://www.w3.org/2000/svg" version="1.1" xmlns:xlink="http://www.w3.org/1999/xlink" width="1500" height="1500" viewBox="0 0 1500 1500"><rect width="1500" height="1500" x="0" y="0" id="background" stroke="transparent" fill="#111111"></rect><svg xml:space="preserve" width="1000" height="1000" data-version="2" data-id="lg_Bm2kZCNMIj0YEvkBam" viewBox="0 0 346 409" x="250" y="250"><rect width="100%" height="100%" fill="transparent"></rect><path fill="#fff" d="M172.669 55 64.259 387.64v-.49q-2.97 7.42-8.17 12.13-5.19 4.7-12.62 4.7-3.96 0-7.67-.74-3.71-.75-7.67-1.74h.49q-28.21-8.91-20.79-31.68l112.86-343.03q2.48-7.92 8.66-13.37 6.19-5.44 14.61-6.43 8.41-1.49 16.33-2.23 7.92-.74 12.38-.74 4.45 0 12.37.74 7.92.74 16.34 1.73 6.93.99 13.61 7.43 6.68 6.43 10.15 12.87 27.72 85.14 56.18 171.52 28.46 86.37 56.18 171.51 6.93 22.77-20.79 31.68-3.96.99-7.18 1.74-3.21.74-7.17.74-6.93 0-12.63-4.7-5.69-4.71-8.16-12.13v.49Zm37.12 225.72q0 15.84-11.14 26.98-11.13 11.14-26.97 11.14-15.84 0-26.73-11.14t-10.89-26.98q0-15.84 10.89-26.97 10.89-11.14 26.73-11.14t26.97 11.14q11.14 11.13 11.14 26.97"></path><rect width="337.7" height="399.96" x="-168.85" y="-199.98" fill="none" rx="0" ry="0" transform="translate(173 204.5)"></rect></svg></svg>